<svg width="1024" height="1024" viewBox="0 0 1024 1024" fill="none" xmlns="http://www.w3.org/2000/svg">
<g clip-path="url(#clip0_2146_38)">
<rect width="1024" height="1024" rx="249" fill="#9238FF"/>
<path d="M940 285C968.167 285 991 262.167 991 234C991 205.833 968.167 183 940 183C915.967 183 895.816 199.624 890.42 222H841L797.223 476.546H905.905L939.088 284.992C939.391 284.997 939.695 285 940 285Z" fill="white"/>
<path d="M475.378 253H144.878L132.858 323.585H359.3L347.333 393.5H134.333L122 466.037H335L318.5 562.951H421.696L475.378 253Z" fill="white"/>
<path d="M417.031 592.142H68.327L50.5 693.727H399.5L417.031 592.142Z" fill="white"/>
<path d="M878 562.951H581L565.08 655.195H766.838L737.745 821H833.5L878 562.951Z" fill="white"/>
<path fill-rule="evenodd" clip-rule="evenodd" d="M790.223 246H542.223L528.713 323.064H554.37L533.868 438.661H502.38L490.227 511.055H751.223L763.723 438.661H735.539L754.962 323.064H776.934L790.223 246ZM681.5 323.064H622L603 436.596H662L681.5 323.064Z" fill="white"/>
<path d="M971 234C971 251.121 957.121 265 940 265C922.879 265 909 251.121 909 234C909 216.879 922.879 203 940 203C957.121 203 971 216.879 971 234Z" fill="#FF103E"/>
</g>
<defs>
<clipPath id="clip0_2146_38">
<rect width="1024" height="1024" fill="white"/>
</clipPath>
</defs>
</svg>
